<svg xmlns="http://www.w3.org/2000/svg" version="1.1" xmlns:xlink="http://www.w3.org/1999/xlink" xmlns:svgjs="http://svgjs.dev/svgjs" width="128" height="128"><svg id="SvgjsSvg1040" data-name="レイヤー 1" xmlns="http://www.w3.org/2000/svg" viewBox="0 0 128 128">
  <defs>
    <style>
      .b {
        fill: #ff0094;
      }

      .c {
        fill: #f2c71a;
      }
    </style>
  </defs>
  <g>
    <path d="M42.62,41.69v3.56h3.5v7h-3.5v3.56h-3.56v-7.06h-7v3.5h-3.56v7.06h3.56v3.56h3.5v3.5h7.06v7.06h3.5v7.06h-3.5v7.06h-3.56v3.5h-3.5v3.56h-7.06v3.5H10.88v-7.06h3.5v-10.56h3.56v-3.56h7.06v7.06h-3.56v3.56h7.06v-3.56h3.56v-3.5h3.5v-7.06h-3.5v-3.5h-7.06v-3.56h-3.56v-7.06h-3.5v-7.06h3.5v-7h7.06v-3.56h14.12Z"></path>
    <path d="M88.69,47.62v3.56h-17.62v7.06h-3.56v7.06h10.56v3.5h3.56v3.5h-17.62v7.06h-3.56v10.62h-3.5v3.5h-7.06v-3.5h3.5v-21.19h3.56v-17.62h3.5v-7.06h24.69v3.5h3.56Z"></path>
    <path d="M110.06,49h7.06v3.5h-3.5v7.06h-3.56v3.56h-3.5v3.5h-3.56v17.62h3.56v-3.5h3.5v-3.56h-3.5v-7.06h7.06v3.56h3.5v10.56h-3.5v7.06h-14.12v-3.5h-3.56v-3.56h-3.5v-17.62h3.5v-10.56h3.56v-3.56h3.5v-3.5h7.06Z"></path>
  </g>
  <g>
    <path class="b" d="M42.62,38.69v3.56h3.5v7h-3.5v3.56h-3.56v-7.06h-7v3.5h-3.56v7.06h3.56v3.56h3.5v3.5h7.06v7.06h3.5v7.06h-3.5v7.06h-3.56v3.5h-3.5v3.56h-7.06v3.5H10.88v-7.06h3.5v-10.56h3.56v-3.56h7.06v7.06h-3.56v3.56h7.06v-3.56h3.56v-3.5h3.5v-7.06h-3.5v-3.5h-7.06v-3.56h-3.56v-7.06h-3.5v-7.06h3.5v-7h7.06v-3.56h14.12Z"></path>
    <path class="b" d="M88.69,44.62v3.56h-17.62v7.06h-3.56v7.06h10.56v3.5h3.56v3.5h-17.62v7.06h-3.56v10.62h-3.5v3.5h-7.06v-3.5h3.5v-21.19h3.56v-17.62h3.5v-7.06h24.69v3.5h3.56Z"></path>
    <path class="b" d="M110.06,46h7.06v3.5h-3.5v7.06h-3.56v3.56h-3.5v3.5h-3.56v17.62h3.56v-3.5h3.5v-3.56h-3.5v-7.06h7.06v3.56h3.5v10.56h-3.5v7.06h-14.12v-3.5h-3.56v-3.56h-3.5v-17.62h3.5v-10.56h3.56v-3.56h3.5v-3.5h7.06Z"></path>
  </g>
  <g>
    <path class="c" d="M42.62,35.69v3.56h3.5v7h-3.5v3.56h-3.56v-7.06h-7v3.5h-3.56v7.06h3.56v3.56h3.5v3.5h7.06v7.06h3.5v7.06h-3.5v7.06h-3.56v3.5h-3.5v3.56h-7.06v3.5H10.88v-7.06h3.5v-10.56h3.56v-3.56h7.06v7.06h-3.56v3.56h7.06v-3.56h3.56v-3.5h3.5v-7.06h-3.5v-3.5h-7.06v-3.56h-3.56v-7.06h-3.5v-7.06h3.5v-7h7.06v-3.56h14.12Z"></path>
    <path class="c" d="M88.69,41.62v3.56h-17.62v7.06h-3.56v7.06h10.56v3.5h3.56v3.5h-17.62v7.06h-3.56v10.62h-3.5v3.5h-7.06v-3.5h3.5v-21.19h3.56v-17.62h3.5v-7.06h24.69v3.5h3.56Z"></path>
    <path class="c" d="M110.06,43h7.06v3.5h-3.5v7.06h-3.56v3.56h-3.5v3.5h-3.56v17.62h3.56v-3.5h3.5v-3.56h-3.5v-7.06h7.06v3.56h3.5v10.56h-3.5v7.06h-14.12v-3.5h-3.56v-3.56h-3.5v-17.62h3.5v-10.56h3.56v-3.56h3.5v-3.5h7.06Z"></path>
  </g>
</svg><style>@media (prefers-color-scheme: light) { :root { filter: none; } }
@media (prefers-color-scheme: dark) { :root { filter: none; } }
</style></svg>