<?xml version="1.0" encoding="UTF-8"?>
<svg id="a" data-name="レイヤー 1" xmlns="http://www.w3.org/2000/svg" viewBox="0 0 366 96">
  <defs>
    <style>
      .b {
        fill: none;
      }

      .c {
        fill: #ff0094;
      }

      .d {
        fill: #f2c71a;
      }
    </style>
  </defs>
  <g>
    <rect class="b" x="-73" y="-18" width="512" height="128" />
    <path
      d="M35.16,20.69v3.56h3.5v7h-3.5v3.56h-3.56v-7.06h-7v3.5h-3.56v7.06h3.56v3.56h3.5v3.5h7.06v7.06h3.5v7.06h-3.5v7.06h-3.56v3.5h-3.5v3.56h-7.06v3.5H3.41v-7.06h3.5v-10.56h3.56v-3.56h7.06v7.06h-3.56v3.56h7.06v-3.56h3.56v-3.5h3.5v-7.06h-3.5v-3.5h-7.06v-3.56h-3.56v-7.06h-3.5v-7.06h3.5v-7h7.06v-3.56h14.12Z" />
    <path
      d="M81.22,26.62v3.56h-17.62v7.06h-3.56v7.06h10.56v3.5h3.56v3.5h-17.62v7.06h-3.56v10.62h-3.5v3.5h-7.06v-3.5h3.5v-21.19h3.56v-17.62h3.5v-7.06h24.69v3.5h3.56Z" />
    <path
      d="M102.59,28h7.06v3.5h-3.5v7.06h-3.56v3.56h-3.5v3.5h-3.56v17.62h3.56v-3.5h3.5v-3.56h-3.5v-7.06h7.06v3.56h3.5v10.56h-3.5v7.06h-14.12v-3.5h-3.56v-3.56h-3.5v-17.62h3.5v-10.56h3.56v-3.56h3.5v-3.5h7.06Z" />
    <path
      d="M163.97,29.69v3.5h-7.06v3.56h-3.5v3.5h-3.56v3.56h-3.5v3.5h-3.56v10.56h7.06v3.56h7.06v7.06h-3.5v3.5h-10.62v-3.5h-3.5v-3.56h-3.56v-7.06h-3.5v-7.06h3.5v-10.56h3.56v-3.5h3.5v-3.56h3.56v-3.5h7.06v-3.56h10.56v3.56Z" />
    <path
      d="M199.47,22.19v3.5h3.5v28.19h-3.5v10.62h-3.56v3.5h-3.5v3.56h-3.5v3.5h-14.12v-3.5h-3.56v-10.62h-3.5v-24.69h3.5v-3.5h3.56v-7.06h3.5v-3.5h3.56v-3.56h14.06v3.56h3.56ZM192.41,29.19v-3.5h-7.06v3.5h-3.5v7.06h-3.56v7.06h-3.5v14.12h3.5v7.06h7.06v-3.56h3.56v-10.56h3.5v-21.19Z" />
    <path
      d="M249.03,20.81v-3.5h3.56v21.12h-3.56v28.25h-3.5v14.06h-3.56v10.62h-3.5v3.5h-3.56v-35.25h3.56v-7.06h-3.56v7.06h-3.5v3.5h-3.5v7.06h-3.56v3.5h-3.5v-7h-3.56v-7.06h-3.5v10.56h-3.56v3.5h-3.5v-14.06h3.5v-14.12h3.56v-10.56h3.5v-7.06h3.56v-10.56h3.5v21.12h3.56v10.56h3.5v-7h3.5v-3.56h3.56v-7.06h3.5v-3.5h3.56v-3.56h3.5v-3.5Z" />
    <path
      d="M295.16,9.38v3.56h3.5v17.62h-3.5v3.5h-3.56v7.06h3.56v7.06h3.5v21.12h-3.5v3.56h-3.56v3.5h-3.5v3.56h-3.56v3.5h-7v3.56h-10.62v3.5h-10.56v-10.56h7.06v-3.56h7.06v-3.5h7.06v-3.56h7v-3.5h3.56v-3.5h3.5v-7.06h-3.5v-7.06h-3.56v-7.06h-3.5v-3.5h3.5v-7.06h3.56v-7.06h3.5v-7.06h-7.06v7.06h-3.5v10.56h-3.5v10.56h-3.56v14.12h-3.5v10.56h-3.56v3.56h-7.06v-3.56h-3.5v-7h3.5v-7.06h3.56v-7.06h3.5v-10.56h3.56v-17.69h3.5v-7h3.56v-3.56h17.62Z" />
    <path
      d="M334.16,22.19v3.5h3.5v28.19h-3.5v10.62h-3.56v3.5h-3.5v3.56h-3.5v3.5h-14.12v-3.5h-3.56v-10.62h-3.5v-24.69h3.5v-3.5h3.56v-7.06h3.5v-3.5h3.56v-3.56h14.06v3.56h3.56ZM327.09,29.19v-3.5h-7.06v3.5h-3.5v7.06h-3.56v7.06h-3.5v14.12h3.5v7.06h7.06v-3.56h3.56v-10.56h3.5v-21.19Z" />
    <path
      d="M359.03,22.12h3.56v7.06h-3.56v10.56h-3.5v14.12h-3.56v10.56h-10.56v-3.5h3.5v-17.62h3.56v-17.62h3.5v-3.56h3.56v-3.5h3.5v3.5ZM341.41,68h7.06v10.56h-7.06v-10.56Z" />
  </g>
  <g>
    <rect class="b" x="-73" y="-21" width="512" height="128" />
    <path class="c"
      d="M35.16,17.69v3.56h3.5v7h-3.5v3.56h-3.56v-7.06h-7v3.5h-3.56v7.06h3.56v3.56h3.5v3.5h7.06v7.06h3.5v7.06h-3.5v7.06h-3.56v3.5h-3.5v3.56h-7.06v3.5H3.41v-7.06h3.5v-10.56h3.56v-3.56h7.06v7.06h-3.56v3.56h7.06v-3.56h3.56v-3.5h3.5v-7.06h-3.5v-3.5h-7.06v-3.56h-3.56v-7.06h-3.5v-7.06h3.5v-7h7.06v-3.56h14.12Z" />
    <path class="c"
      d="M81.22,23.62v3.56h-17.62v7.06h-3.56v7.06h10.56v3.5h3.56v3.5h-17.62v7.06h-3.56v10.62h-3.5v3.5h-7.06v-3.5h3.5v-21.19h3.56v-17.62h3.5v-7.06h24.69v3.5h3.56Z" />
    <path class="c"
      d="M102.59,25h7.06v3.5h-3.5v7.06h-3.56v3.56h-3.5v3.5h-3.56v17.62h3.56v-3.5h3.5v-3.56h-3.5v-7.06h7.06v3.56h3.5v10.56h-3.5v7.06h-14.12v-3.5h-3.56v-3.56h-3.5v-17.62h3.5v-10.56h3.56v-3.56h3.5v-3.5h7.06Z" />
    <path class="c"
      d="M163.97,26.69v3.5h-7.06v3.56h-3.5v3.5h-3.56v3.56h-3.5v3.5h-3.56v10.56h7.06v3.56h7.06v7.06h-3.5v3.5h-10.62v-3.5h-3.5v-3.56h-3.56v-7.06h-3.5v-7.06h3.5v-10.56h3.56v-3.5h3.5v-3.56h3.56v-3.5h7.06v-3.56h10.56v3.56Z" />
    <path class="c"
      d="M199.47,19.19v3.5h3.5v28.19h-3.5v10.62h-3.56v3.5h-3.5v3.56h-3.5v3.5h-14.12v-3.5h-3.56v-10.62h-3.5v-24.69h3.5v-3.5h3.56v-7.06h3.5v-3.5h3.56v-3.56h14.06v3.56h3.56ZM192.41,26.19v-3.5h-7.06v3.5h-3.5v7.06h-3.56v7.06h-3.5v14.12h3.5v7.06h7.06v-3.56h3.56v-10.56h3.5v-21.19Z" />
    <path class="c"
      d="M249.03,17.81v-3.5h3.56v21.12h-3.56v28.25h-3.5v14.06h-3.56v10.62h-3.5v3.5h-3.56v-35.25h3.56v-7.06h-3.56v7.06h-3.5v3.5h-3.5v7.06h-3.56v3.5h-3.5v-7h-3.56v-7.06h-3.5v10.56h-3.56v3.5h-3.5v-14.06h3.5v-14.12h3.56v-10.56h3.5v-7.06h3.56v-10.56h3.5v21.12h3.56v10.56h3.5v-7h3.5v-3.56h3.56v-7.06h3.5v-3.5h3.56v-3.56h3.5v-3.5Z" />
    <path class="c"
      d="M295.16,6.38v3.56h3.5v17.62h-3.5v3.5h-3.56v7.06h3.56v7.06h3.5v21.12h-3.5v3.56h-3.56v3.5h-3.5v3.56h-3.56v3.5h-7v3.56h-10.62v3.5h-10.56v-10.56h7.06v-3.56h7.06v-3.5h7.06v-3.56h7v-3.5h3.56v-3.5h3.5v-7.06h-3.5v-7.06h-3.56v-7.06h-3.5v-3.5h3.5v-7.06h3.56v-7.06h3.5v-7.06h-7.06v7.06h-3.5v10.56h-3.5v10.56h-3.56v14.12h-3.5v10.56h-3.56v3.56h-7.06v-3.56h-3.5v-7h3.5v-7.06h3.56v-7.06h3.5v-10.56h3.56v-17.69h3.5v-7h3.56v-3.56h17.62Z" />
    <path class="c"
      d="M334.16,19.19v3.5h3.5v28.19h-3.5v10.62h-3.56v3.5h-3.5v3.56h-3.5v3.5h-14.12v-3.5h-3.56v-10.62h-3.5v-24.69h3.5v-3.5h3.56v-7.06h3.5v-3.5h3.56v-3.56h14.06v3.56h3.56ZM327.09,26.19v-3.5h-7.06v3.5h-3.5v7.06h-3.56v7.06h-3.5v14.12h3.5v7.06h7.06v-3.56h3.56v-10.56h3.5v-21.19Z" />
    <path class="c"
      d="M359.03,19.12h3.56v7.06h-3.56v10.56h-3.5v14.12h-3.56v10.56h-10.56v-3.5h3.5v-17.62h3.56v-17.62h3.5v-3.56h3.56v-3.5h3.5v3.5ZM341.41,65h7.06v10.56h-7.06v-10.56Z" />
  </g>
  <g>
    <rect class="b" x="-73" y="-24" width="512" height="128" />
    <path class="d"
      d="M35.16,14.69v3.56h3.5v7h-3.5v3.56h-3.56v-7.06h-7v3.5h-3.56v7.06h3.56v3.56h3.5v3.5h7.06v7.06h3.5v7.06h-3.5v7.06h-3.56v3.5h-3.5v3.56h-7.06v3.5H3.41v-7.06h3.5v-10.56h3.56v-3.56h7.06v7.06h-3.56v3.56h7.06v-3.56h3.56v-3.5h3.5v-7.06h-3.5v-3.5h-7.06v-3.56h-3.56v-7.06h-3.5v-7.06h3.5v-7h7.06v-3.56h14.12Z" />
    <path class="d"
      d="M81.22,20.62v3.56h-17.62v7.06h-3.56v7.06h10.56v3.5h3.56v3.5h-17.62v7.06h-3.56v10.62h-3.5v3.5h-7.06v-3.5h3.5v-21.19h3.56v-17.62h3.5v-7.06h24.69v3.5h3.56Z" />
    <path class="d"
      d="M102.59,22h7.06v3.5h-3.5v7.06h-3.56v3.56h-3.5v3.5h-3.56v17.62h3.56v-3.5h3.5v-3.56h-3.5v-7.06h7.06v3.56h3.5v10.56h-3.5v7.06h-14.12v-3.5h-3.56v-3.56h-3.5v-17.62h3.5v-10.56h3.56v-3.56h3.5v-3.5h7.06Z" />
    <path class="d"
      d="M163.97,23.69v3.5h-7.06v3.56h-3.5v3.5h-3.56v3.56h-3.5v3.5h-3.56v10.56h7.06v3.56h7.06v7.06h-3.5v3.5h-10.62v-3.5h-3.5v-3.56h-3.56v-7.06h-3.5v-7.06h3.5v-10.56h3.56v-3.5h3.5v-3.56h3.56v-3.5h7.06v-3.56h10.56v3.56Z" />
    <path class="d"
      d="M199.47,16.19v3.5h3.5v28.19h-3.5v10.62h-3.56v3.5h-3.5v3.56h-3.5v3.5h-14.12v-3.5h-3.56v-10.62h-3.5v-24.69h3.5v-3.5h3.56v-7.06h3.5v-3.5h3.56v-3.56h14.06v3.56h3.56ZM192.41,23.19v-3.5h-7.06v3.5h-3.5v7.06h-3.56v7.06h-3.5v14.12h3.5v7.06h7.06v-3.56h3.56v-10.56h3.5v-21.19Z" />
    <path class="d"
      d="M249.03,14.81v-3.5h3.56v21.12h-3.56v28.25h-3.5v14.06h-3.56v10.62h-3.5v3.5h-3.56v-35.25h3.56v-7.06h-3.56v7.06h-3.5v3.5h-3.5v7.06h-3.56v3.5h-3.5v-7h-3.56v-7.06h-3.5v10.56h-3.56v3.5h-3.5v-14.06h3.5v-14.12h3.56v-10.56h3.5v-7.06h3.56v-10.56h3.5v21.12h3.56v10.56h3.5v-7h3.5v-3.56h3.56v-7.06h3.5v-3.5h3.56v-3.56h3.5v-3.5Z" />
    <path class="d"
      d="M295.16,3.38v3.56h3.5v17.62h-3.5v3.5h-3.56v7.06h3.56v7.06h3.5v21.12h-3.5v3.56h-3.56v3.5h-3.5v3.56h-3.56v3.5h-7v3.56h-10.62v3.5h-10.56v-10.56h7.06v-3.56h7.06v-3.5h7.06v-3.56h7v-3.5h3.56v-3.5h3.5v-7.06h-3.5v-7.06h-3.56v-7.06h-3.5v-3.5h3.5v-7.06h3.56v-7.06h3.5v-7.06h-7.06v7.06h-3.5v10.56h-3.5v10.56h-3.56v14.12h-3.5v10.56h-3.56v3.56h-7.06v-3.56h-3.5v-7h3.5v-7.06h3.56v-7.06h3.5v-10.56h3.56V13.94h3.5v-7h3.56v-3.56h17.62Z" />
    <path class="d"
      d="M334.16,16.19v3.5h3.5v28.19h-3.5v10.62h-3.56v3.5h-3.5v3.56h-3.5v3.5h-14.12v-3.5h-3.56v-10.62h-3.5v-24.69h3.5v-3.5h3.56v-7.06h3.5v-3.5h3.56v-3.56h14.06v3.56h3.56ZM327.09,23.19v-3.5h-7.06v3.5h-3.5v7.06h-3.56v7.06h-3.5v14.12h3.5v7.06h7.06v-3.56h3.56v-10.56h3.5v-21.19Z" />
    <path class="d"
      d="M359.03,16.12h3.56v7.06h-3.56v10.56h-3.5v14.12h-3.56v10.56h-10.56v-3.5h3.5v-17.62h3.56v-17.62h3.5v-3.56h3.56v-3.5h3.5v3.5ZM341.41,62h7.06v10.56h-7.06v-10.56Z" />
  </g>
</svg>